<svg width="313" height="242" viewBox="0 0 313 242" fill="none" xmlns="http://www.w3.org/2000/svg">
<path d="M129.172 220.217C184.736 231.33 233.424 218.728 260.231 196.388C271.276 187.185 282.447 173.057 286.543 156.674C301.437 97.1019 257.545 47.7773 223.495 66.3226C167.893 96.6062 159.618 75.0844 114.278 29.0888C80.0247 -5.66233 -28.6964 42.9893 27.8989 145.256C50.908 186.831 89.4576 212.274 129.172 220.217Z" fill="#E4F3ED"/>
<path d="M45.4457 20.4365L33.21 26.106L39.4468 39.5662L51.6825 33.8967L45.4457 20.4365Z" fill="#E9A65F"/>
<path d="M51.5459 20.4694L28.8176 31.0012L28.6254 30.5884C26.6442 26.3112 28.5048 21.2384 32.7801 19.2572L41.1101 15.3985C45.0857 13.5568 49.8041 15.2854 51.6458 19.261L51.8381 19.6757C51.9757 19.9736 51.8456 20.3299 51.5459 20.4694Z" fill="#122052"/>
<path d="M81.9767 115.32C105.475 104.432 115.698 76.5566 104.81 53.0582C93.9217 29.5598 66.046 19.3371 42.5476 30.2251C19.0492 41.1132 8.82651 68.9889 19.7146 92.4873C30.6026 115.986 58.4783 126.208 81.9767 115.32Z" fill="#E9A65F"/>
<path d="M97.4346 56.2239C97.6759 56.7441 97.9058 57.2701 98.1226 57.7979C99.8908 62.0902 100.865 66.5955 101.022 71.2195C101.192 76.2357 100.396 81.1821 98.6599 85.9174C96.9238 90.6545 94.3318 94.9412 90.9594 98.6585C87.4701 102.506 83.2872 105.575 78.5293 107.778C76.6951 108.629 74.8176 109.33 72.908 109.88C69.8599 110.759 66.725 111.256 63.5336 111.366C62.9398 111.386 62.3461 111.392 61.7541 111.385C57.3487 111.334 53.0112 110.534 48.8339 109.004C48.1572 108.755 47.4917 108.489 46.8338 108.208C42.8846 106.512 39.2804 104.193 36.0947 101.303C34.1832 99.5709 32.4659 97.667 30.9503 95.6066C29.7457 93.9704 28.6693 92.2361 27.7268 90.4076C27.4667 89.9024 27.2141 89.3916 26.9747 88.8713C24.771 84.1134 23.5627 79.069 23.3874 73.8775C23.2177 68.8613 24.0113 63.9149 25.7494 59.1797C27.4855 54.4425 30.0775 50.1558 33.4499 46.4385C36.941 42.5911 41.124 39.5222 45.88 37.3167C48.2759 36.2064 50.7435 35.3506 53.2676 34.7511C55.7558 34.1592 58.2969 33.818 60.8737 33.7313C65.1736 33.5861 69.4226 34.1498 73.532 35.4071C74.2163 35.6163 74.8968 35.8444 75.5735 36.0933C79.7489 37.6239 83.5756 39.8182 86.9687 42.6269C87.4249 43.0039 87.8735 43.3922 88.3146 43.7919C90.6804 45.9352 92.7502 48.3424 94.5071 50.9853C95.608 52.6423 96.5844 54.3897 97.4346 56.2239Z" fill="#EBEBFB"/>
<path d="M98.1221 57.7978C99.8903 62.0901 100.865 66.5954 101.021 71.2195C101.191 76.2356 100.396 81.182 98.6594 85.9173C96.9232 90.6545 94.3312 94.9411 90.9588 98.6585C87.4696 102.506 83.2867 105.575 78.5288 107.778C76.6946 108.629 74.8171 109.33 72.9075 109.88C69.8594 110.759 66.7244 111.256 63.533 111.366C62.9392 111.386 62.3455 111.392 61.7536 111.385C57.3482 111.334 53.0107 110.534 48.8334 109.004C48.1566 108.755 47.4911 108.489 46.8332 108.208C42.884 106.512 39.2799 104.193 36.0941 101.303C34.1827 99.5709 32.4654 97.6669 30.9498 95.6066C29.7452 93.9703 28.6688 92.2361 27.7263 90.4076C25.96 86.119 24.9854 81.6119 24.8289 76.9897C24.6593 71.9735 25.4529 67.0271 27.1909 62.2918C28.9271 57.5547 31.5191 53.268 34.8914 49.5507C38.3826 45.7033 42.5655 42.6344 47.3215 40.4289C49.7174 39.3186 52.185 38.4627 54.7091 37.8633C57.1974 37.2714 59.7384 36.9302 62.3153 36.8435C66.617 36.6983 70.8641 37.2619 74.9735 38.5193C75.6578 38.7285 76.3383 38.9566 77.0151 39.2054C81.1905 40.7361 85.0153 42.9304 88.4103 45.741C88.8664 46.118 89.3151 46.5063 89.7562 46.9059C92.1219 49.0511 94.1917 51.4584 95.9486 54.0993C96.7365 55.285 97.4623 56.5179 98.1221 57.7978Z" fill="white"/>
<path d="M51.9545 50.4326C51.6265 50.5853 51.2381 50.442 51.0855 50.114L48.5726 44.6907C48.42 44.3627 48.5632 43.9744 48.8912 43.8236C49.2192 43.6709 49.6075 43.8142 49.7583 44.1422L52.2711 49.5655C52.4257 49.8916 52.2825 50.2799 51.9545 50.4326Z" fill="#122052"/>
<path d="M75.5142 101.274C75.1862 101.426 74.7979 101.283 74.6452 100.955L72.1324 95.5317C71.9797 95.2037 72.123 94.8153 72.451 94.6645C72.779 94.5118 73.1673 94.6551 73.32 94.9831L75.8328 100.406C75.9836 100.734 75.8403 101.123 75.5142 101.274Z" fill="#122052"/>
<path d="M40.0865 82.7955C40.2392 83.1235 40.0959 83.5119 39.7679 83.6645L34.3446 86.1773C34.0166 86.3281 33.6283 86.1868 33.4775 85.8588C33.3248 85.5308 33.4681 85.1424 33.7961 84.9916L39.2194 82.4788C39.5474 82.3262 39.9357 82.4675 40.0865 82.7955Z" fill="#122052"/>
<path d="M90.9294 59.238C91.0821 59.566 90.9388 59.9544 90.6108 60.1071L85.1874 62.6199C84.8594 62.7725 84.4711 62.6293 84.3184 62.3013C84.1657 61.9733 84.309 61.585 84.637 61.4342L90.0604 58.9214C90.3884 58.7687 90.7786 58.91 90.9294 59.238Z" fill="#122052"/>
<path d="M72.4435 42.6431L69.9356 49.4812L71.1638 49.9316L73.6716 43.0935L72.4435 42.6431Z" fill="#122052"/>
<path d="M51.3027 102.272C50.9634 102.147 50.79 101.772 50.9144 101.433L52.9729 95.8212C53.0973 95.4819 53.4724 95.3084 53.8117 95.4328C54.1511 95.5573 54.3245 95.9324 54.2 96.2717L52.1416 101.884C52.0172 102.223 51.642 102.396 51.3027 102.272Z" fill="#122052"/>
<path d="M39.3171 64.1562C39.1927 64.4956 38.8175 64.669 38.4782 64.5446L32.8664 62.4861C32.5271 62.3617 32.3537 61.9865 32.4781 61.6472C32.6025 61.3079 32.9777 61.1345 33.317 61.2589L38.9288 63.3174C39.2681 63.4418 39.4415 63.8169 39.3171 64.1562Z" fill="#122052"/>
<path d="M91.9279 83.4479C91.8034 83.7872 91.4283 83.9606 91.089 83.8362L85.4772 81.7777C85.1379 81.6533 84.9644 81.2782 85.0889 80.9389C85.2133 80.5996 85.5884 80.4261 85.9277 80.5505L91.5395 82.609C91.877 82.7334 92.0523 83.1104 91.9279 83.4479Z" fill="#122052"/>
<path d="M78.2041 72.0338L65.5138 72.7803L65.4478 71.6625L78.138 70.916C78.4472 70.8971 78.713 71.1327 78.73 71.4419C78.7488 71.751 78.5132 72.015 78.2041 72.0338Z" fill="#5B6BC8"/>
<path d="M62.9458 72.8217L44.9698 81.1518C44.6889 81.2818 44.3552 81.1593 44.2252 80.8785C44.0951 80.5976 44.2177 80.2639 44.4986 80.1339L61.4565 72.275L55.0436 58.4349C54.9135 58.154 55.0361 57.8203 55.317 57.6903C55.5978 57.5602 55.9314 57.6827 56.0615 57.9636L62.9458 72.8217Z" fill="#122052"/>
<path d="M63.6995 75.8727C65.531 75.024 66.3278 72.8513 65.4792 71.0198C64.6305 69.1882 62.4578 68.3914 60.6262 69.2401C58.7947 70.0887 57.9978 72.2615 58.8465 74.093C59.6951 75.9246 61.8679 76.7213 63.6995 75.8727Z" fill="#122052"/>
<path d="M63.0575 74.4809C64.1249 73.9864 64.5892 72.7201 64.0946 71.6528C63.6001 70.5854 62.3338 70.121 61.2665 70.6156C60.1991 71.1102 59.7347 72.3764 60.2293 73.4438C60.7239 74.5112 61.9901 74.9755 63.0575 74.4809Z" fill="#575960"/>
<path d="M179.198 79.3389H179.192C177.942 79.3389 176.676 79.5029 175.413 79.8516C167.838 81.9384 163.39 89.7708 165.478 97.345L166.057 99.4563L166.623 101.407C167.015 102.695 167.414 103.965 167.829 105.24C168.658 107.775 169.56 110.282 170.496 112.789C171.464 115.287 172.47 117.779 173.55 120.267C174.64 122.752 175.812 125.225 177.066 127.704C178.314 130.183 179.677 132.652 181.179 135.122C182.682 137.591 184.318 140.064 186.193 142.545C188.101 145.009 190.212 147.478 192.851 149.916C192.861 149.925 192.87 149.935 192.88 149.94C194.195 151.15 195.636 152.347 197.281 153.494C198.111 154.072 198.993 154.638 199.935 155.177L200.284 155.379C200.397 155.445 200.567 155.529 200.708 155.599L201.594 156.042C202.184 156.344 202.791 156.585 203.398 156.834C205.83 157.795 208.324 158.355 210.661 158.606C213.012 158.857 215.218 158.807 217.254 158.602C221.344 158.172 224.799 157.164 227.9 155.967C231.015 154.77 233.776 153.38 236.378 151.91C238.985 150.449 241.388 148.866 243.688 147.239C248.297 143.993 252.453 140.496 256.406 136.871C258.367 135.039 260.29 133.195 262.143 131.278C263.07 130.322 263.99 129.359 264.899 128.375L266.256 126.871L267.679 125.255C271.213 121.255 271.444 115.161 267.966 110.882C264.088 106.112 257.079 105.387 252.31 109.26L251.805 109.67L250.576 110.674L249.228 111.749C248.329 112.471 247.415 113.191 246.495 113.898C244.651 115.312 242.8 116.716 240.919 118.049C237.186 120.735 233.373 123.227 229.614 125.372C227.734 126.441 225.853 127.393 224.044 128.234C222.234 129.059 220.456 129.745 218.869 130.185C217.28 130.633 215.876 130.863 215.001 130.841C214.564 130.835 214.266 130.775 214.143 130.718C214.021 130.662 214.077 130.614 214.209 130.624C214.247 130.62 214.271 130.643 214.318 130.639C214.341 130.645 214.36 130.648 214.375 130.658C214.381 130.658 214.384 130.658 214.39 130.663L179.198 79.3389Z" fill="#EAAD91"/>
<path d="M214.397 130.664L214.391 130.658V130.652L214.34 130.615C214.212 130.524 214.048 130.411 213.863 130.26C213.495 129.972 213.043 129.567 212.553 129.076C211.573 128.096 210.474 126.743 209.395 125.231C208.298 123.719 207.214 122.023 206.168 120.217C205.122 118.411 204.114 116.503 203.114 114.543C202.125 112.578 201.186 110.546 200.262 108.478C199.335 106.414 198.443 104.309 197.591 102.173C196.96 100.646 196.356 99.1002 195.766 97.5506C195.54 96.9437 195.31 96.3348 195.084 95.7278C194.673 94.6495 194.279 93.5656 193.896 92.4911L193.322 90.8888L192.813 89.4279L192.611 88.8435C191.565 85.8708 189.61 83.4334 187.144 81.7745L214.397 130.664Z" fill="#EAAD91"/>
<path d="M274.822 103.217C274.822 103.217 285.425 99.3264 291.435 101.272C297.445 103.217 296.334 108.733 296.334 108.733C296.334 108.733 276.588 108.165 274.822 103.217Z" fill="#EAAD91"/>
<path d="M312.272 159.041C290.075 161.369 267.856 161.584 245.618 159.69C245.996 158.497 246.471 156.823 247.011 154.808C247.16 154.25 247.314 153.663 247.472 153.054C249.998 143.38 253.631 127.732 255.982 117.434C256.788 113.902 257.444 110.997 257.854 109.181L299.033 108.703C299.21 109.421 299.43 110.316 299.689 111.361C301.932 120.445 306.982 140.713 310.262 152.364C310.432 152.97 310.598 153.552 310.758 154.106C311.346 156.148 311.861 157.841 312.272 159.041Z" fill="#67DAA8"/>
<path d="M259.68 114.733L251.433 153.286L252.089 153.426L260.337 114.873L259.68 114.733Z" fill="#23B576"/>
<path d="M297.039 111.041L296.385 111.194L306.153 152.907L306.806 152.754L297.039 111.041Z" fill="#23B576"/>
<path d="M278.339 144.701C284.398 144.642 289.262 139.682 289.203 133.623C289.144 127.564 284.185 122.7 278.126 122.758C272.067 122.817 267.202 127.777 267.261 133.836C267.32 139.895 272.279 144.759 278.339 144.701Z" fill="#23B576"/>
<path d="M310.758 154.105C299.564 155.432 288.742 155.96 279.127 156.054C264.887 156.192 253.286 155.381 247.011 154.808C247.16 154.25 247.314 153.664 247.473 153.055C258.044 154.005 283.019 155.564 310.264 152.363C310.432 152.968 310.598 153.549 310.758 154.105Z" fill="#23B576"/>
<path d="M299.691 111.359L255.982 117.433C256.788 113.9 257.444 110.995 257.853 109.18L299.033 108.701C299.21 109.421 299.432 110.315 299.691 111.359Z" fill="#23B576"/>
<path d="M299.938 110.314L257.002 110.731C255.394 110.746 254.076 109.455 254.061 107.847L254.057 107.51C254.042 105.902 255.334 104.584 256.941 104.569L299.878 104.152C301.485 104.137 302.803 105.428 302.818 107.036L302.822 107.374C302.837 108.982 301.546 110.299 299.938 110.314Z" fill="#67DAA8"/>
<path d="M260.349 104.537C260.349 104.537 266.575 99.2113 270.934 99.3301C275.292 99.4488 280.949 104.162 282.363 107.932C283.777 111.702 274.351 106.87 274.351 106.87L266.104 104.348L260.349 104.537Z" fill="#EAAD91"/>
<path d="M194.755 88.2907C194.755 88.2907 199.852 99.0205 202.442 104.348C205.033 109.675 210.297 117.432 210.297 117.432L190.685 149.751C190.685 149.751 179.984 138.281 179.758 124.371C179.531 110.463 176.843 86.6187 194.755 88.2907Z" fill="#FDB74D"/>
<path d="M208.941 141.681C208.892 141.681 208.843 141.676 208.794 141.666C208.423 141.585 208.187 141.218 208.27 140.846C209.673 134.446 213.283 130.769 213.435 130.616C213.703 130.346 214.138 130.346 214.408 130.614C214.678 130.882 214.678 131.317 214.41 131.587C214.376 131.623 210.924 135.151 209.612 141.14C209.543 141.463 209.258 141.681 208.941 141.681Z" fill="#E2806D"/>
<path d="M207.867 133.309C207.558 133.309 207.277 133.1 207.199 132.789C207.107 132.42 207.331 132.046 207.701 131.954L213.756 130.435C214.127 130.344 214.498 130.567 214.591 130.936C214.683 131.306 214.459 131.679 214.091 131.771L208.036 133.291C207.978 133.304 207.921 133.309 207.867 133.309Z" fill="#E2806D"/>
<path d="M117.672 79.4702C118.845 78.9933 120.082 78.6483 121.384 78.4429C122.381 78.2845 123.337 78.1017 124.253 77.9018H124.257C128.146 77.0536 131.32 75.8716 133.784 74.7048C134.155 74.5295 134.508 74.356 134.849 74.1807C138.472 72.3352 140.519 70.6726 140.519 70.6726L164.539 71.4945C166.695 74.6369 170.443 75.7943 173.37 77.1893C173.691 77.342 174.019 77.4909 174.351 77.636C174.963 77.8999 175.584 78.1431 176.206 78.3656C178.503 79.2044 180.856 79.8114 183.099 80.458C189.079 82.1791 194.3 84.1753 195.746 91.4347C197.092 98.1644 191.931 112.016 192.472 140.096C192.513 142.158 192.583 144.29 192.688 146.507C192.787 148.579 192.919 150.722 193.084 152.942C193.115 153.368 193.148 153.795 193.182 154.226C193.311 155.881 193.463 157.585 193.639 159.323C193.827 161.24 194.044 163.207 194.287 165.22C194.538 167.288 194.817 169.405 195.128 171.576C196.798 183.25 197.839 192.031 199.726 207.545C200.655 215.15 204.344 232.426 203.228 233.301C196.006 249.429 148.712 238.24 113.284 237.98C113.144 237.233 112.941 236.849 112.732 235.116C109.785 227.069 105.898 203.304 103.384 188.308C102.765 184.645 102.469 181.394 102.256 179.296C102.04 177.169 101.947 174.779 101.806 172.649C101.129 162.402 100.183 151.983 100.68 141.178C100.707 140.593 100.735 140.005 100.765 139.413C101.201 130.529 98.0697 118.255 97.4118 107.986C97.4118 107.987 92.5275 88.1886 117.672 79.4702Z" fill="#FDB74D"/>
<path d="M192.308 146.213C192.312 146.213 192.315 146.213 192.321 146.213C192.694 146.205 192.992 145.898 192.985 145.525L192.308 107.427C192.302 107.058 192.001 106.764 191.633 106.764C191.629 106.764 191.625 106.764 191.622 106.764C191.248 106.771 190.951 107.079 190.958 107.452L191.635 145.549C191.639 145.917 191.94 146.213 192.308 146.213Z" fill="#273A8E"/>
<path d="M191.99 119.733C192.257 119.733 192.51 119.573 192.616 119.311L195.142 113.077C195.281 112.73 195.115 112.336 194.768 112.196C194.422 112.057 194.028 112.223 193.888 112.57L191.362 118.806C191.223 119.15 191.388 119.546 191.735 119.686C191.818 119.718 191.905 119.733 191.99 119.733Z" fill="#273A8E"/>
<path d="M118.923 237.516C119 237.516 119.079 237.503 119.155 237.474C119.505 237.346 119.686 236.958 119.558 236.607C110.31 211.281 107.688 183.786 107.117 165.178C106.497 145.001 108.089 130.635 108.105 130.491C108.146 130.12 107.88 129.786 107.509 129.743C107.141 129.7 106.804 129.967 106.76 130.339C106.743 130.482 105.143 144.925 105.763 165.195C106.336 183.908 108.975 211.568 118.288 237.071C118.389 237.346 118.648 237.516 118.923 237.516Z" fill="#273A8E"/>
<path d="M173.661 209.132C178.99 209.132 184.753 208.562 190.94 207.22C191.306 207.141 191.536 206.781 191.456 206.417C191.377 206.053 191.017 205.82 190.653 205.901C167.294 210.97 150.091 204.836 139.77 198.8C128.571 192.249 122.821 184.388 122.765 184.311C122.546 184.009 122.124 183.94 121.82 184.158C121.517 184.377 121.449 184.799 121.668 185.101C121.905 185.431 127.606 193.237 139.033 199.934C146.829 204.504 158.479 209.132 173.661 209.132Z" fill="#273A8E"/>
<path d="M169.674 197.507C171.159 197.507 172.716 197.376 174.345 197.083C174.712 197.017 174.957 196.667 174.891 196.299C174.825 195.932 174.477 195.687 174.107 195.752C155.935 199.006 146.779 181.42 146.689 181.241C146.521 180.91 146.114 180.776 145.78 180.945C145.449 181.113 145.315 181.52 145.484 181.854C145.581 182.044 147.912 186.58 152.629 190.757C156.293 194.003 162.024 197.507 169.674 197.507Z" fill="#273A8E"/>
<path d="M159.884 92.7945C163.901 92.7945 167.698 91.4429 171.202 88.7585C171.498 88.5323 171.555 88.1082 171.328 87.8104C171.102 87.5144 170.676 87.4579 170.38 87.6841C166.442 90.6983 162.118 91.9066 157.534 91.2789C145.997 89.6935 136.357 77.0222 136.261 76.894C136.036 76.5961 135.612 76.5358 135.314 76.7601C135.017 76.9845 134.956 77.4086 135.179 77.7064C135.584 78.2474 145.245 90.9547 157.345 92.6192C158.201 92.736 159.047 92.7945 159.884 92.7945Z" fill="#273A8E"/>
<path d="M173.366 13.5803C173.366 13.5803 176.776 17.0771 176.718 21.1866C176.718 21.1866 178.916 25.5128 178.35 29.249C177.785 32.9852 175.899 37.8298 175.899 37.8298C175.899 37.8298 172.757 20.1611 168.71 19.2638C164.663 18.3684 159.663 15.373 159.663 15.373C159.663 15.373 161.794 10.568 173.366 13.5803Z" fill="#122052"/>
<path d="M130.684 28.5206C130.684 28.5206 129.291 32.86 131.261 34.9939C133.231 37.1278 131.095 40.6435 133.726 42.6869C136.358 44.7322 140.582 43.4635 140.582 43.4635C140.582 43.4635 141.687 21.3461 143.67 19.2668C143.668 19.2668 136.333 19.3234 130.684 28.5206Z" fill="#122052"/>
<path d="M164.607 67.9446V74.3123C163.862 74.9136 163.108 75.4377 162.353 75.892C151.297 82.5312 139.368 74.3123 139.368 74.3123V52.2363L161.597 66.0727L164.607 67.9446Z" fill="#EAAD91"/>
<path d="M164.607 67.7612V74.3118C163.863 74.9131 163.109 75.4372 162.353 75.8915C152.939 72.1647 146.087 62.287 146.087 62.287L161.597 66.0703L164.607 67.7612Z" fill="#122052"/>
<path d="M172.564 39.7265C172.564 39.7265 176.179 35.453 178.224 39.7265C180.268 43.998 178.696 52.6467 173.193 51.231L172.564 39.7265Z" fill="#122052"/>
<path d="M176.42 54.7091C176.42 54.7091 176.439 67.8725 162.746 67.8424C149.138 67.816 139.865 57.1314 139.383 56.6356C139.373 56.6262 139.368 56.6224 139.368 56.6224L139.219 53.8552L138.446 39.4948L138.031 31.8188C138.031 31.8188 136.293 17.9975 149.428 15.4772C159.025 13.6355 168.024 15.2283 172.566 20.2351C172.713 20.3972 172.854 20.5631 172.988 20.7327C174.419 22.4915 175.327 24.6386 175.572 27.1702L175.998 40.9557L176.102 44.3337L176.42 54.7091Z" fill="#EAAD91"/>
<path d="M153.727 44.3886C156.162 44.3886 158.136 43.6113 158.136 42.6524C158.136 41.6936 156.162 40.9163 153.727 40.9163C151.291 40.9163 149.317 41.6936 149.317 42.6524C149.317 43.6113 151.291 44.3886 153.727 44.3886Z" fill="#E2806D"/>
<path d="M176.101 44.3377C175.761 44.3716 175.403 44.3886 175.038 44.3886C172.604 44.3886 170.63 43.61 170.63 42.6524C170.63 41.6948 172.604 40.9163 175.038 40.9163C175.367 40.9163 175.688 40.9313 175.995 40.9577L176.101 44.3377Z" fill="#E2806D"/>
<path d="M143.049 39.5585C143.049 39.5585 147.114 47.8829 151.421 46.3749C155.728 44.8668 163.046 39.8174 167.095 41.4857C167.095 41.4857 171.342 42.1391 175.44 44.6991C178.187 46.4163 177.495 64.6845 168.232 67.7308C158.969 70.777 146.184 68.0569 142.735 59.3479C139.285 50.6389 139.138 43.1005 139.138 43.1005L143.049 39.5585Z" fill="#323232"/>
<path d="M150.771 30.5993C151.466 32.1375 153.265 32.8388 154.816 32.1715C155.723 31.7813 156.79 31.3986 157.917 31.1536C159.514 30.8067 160.502 29.2006 160.068 27.6247C160.068 27.6247 153.693 27.0403 150.771 30.5993Z" fill="#122052"/>
<path d="M175.534 30.5993C174.838 32.1375 173.04 32.8388 171.488 32.1715C170.582 31.7813 169.515 31.3986 168.387 31.1536C166.791 30.8067 165.805 29.2006 166.237 27.6247C166.237 27.6247 172.612 27.0403 175.534 30.5993Z" fill="#122052"/>
<path d="M172.986 20.7346C170.837 19.9749 169.285 20.6818 165.94 22.1522C161.101 24.2766 155.69 22.3652 150.91 19.9203C146.129 17.4772 143.26 20.876 144.891 23.1079C146.52 25.3398 146.342 27.1457 144.537 29.9903C142.731 32.833 147.954 34.1581 145.068 36.3882C143.852 37.3288 143.926 38.7313 144.416 40.0414C144.951 41.4684 143.698 42.9294 142.199 42.6504C140.642 42.2545 138.446 39.4948 138.446 39.4948L138.031 31.8188C138.031 31.8188 136.293 17.9975 149.428 15.4772C159.025 13.6355 168.024 15.2283 172.566 20.2351C172.709 20.3991 172.852 20.5649 172.986 20.7346Z" fill="#122052"/>
<path d="M156.559 39.7588C157.295 39.7588 157.892 38.6921 157.892 37.3761C157.892 36.0602 157.295 34.9934 156.559 34.9934C155.823 34.9934 155.226 36.0602 155.226 37.3761C155.226 38.6921 155.823 39.7588 156.559 39.7588Z" fill="#122052"/>
<path d="M169.786 39.7588C170.522 39.7588 171.119 38.6921 171.119 37.3761C171.119 36.0602 170.522 34.9934 169.786 34.9934C169.05 34.9934 168.453 36.0602 168.453 37.3761C168.453 38.6921 169.05 39.7588 169.786 39.7588Z" fill="#122052"/>
<path d="M143.668 51.295C143.605 51.4402 141.873 55.461 139.381 56.6373C139.373 56.6298 139.368 56.6241 139.368 56.6241L139.219 53.8568C139.221 53.8568 141.381 53.4874 143.668 51.295Z" fill="#122052"/>
<path d="M141.257 42.1529C141.257 42.1529 135.994 35.084 132.137 40.6393C128.959 45.2181 134.966 57.1486 141.257 53.0599V42.1529Z" fill="#EAAD91"/>
<path d="M140.539 50.9291C140.265 50.9291 140.032 50.7236 140.001 50.4465C139.417 45.0967 134.934 43.2305 134.744 43.1532C134.467 43.042 134.331 42.7272 134.442 42.4501C134.553 42.173 134.868 42.0373 135.145 42.1485C135.36 42.2333 140.42 44.3163 141.078 50.3297C141.11 50.6275 140.895 50.8952 140.599 50.9272C140.578 50.9291 140.557 50.9291 140.539 50.9291Z" fill="#122052"/>
<path d="M135.486 47.6485C135.327 47.6485 135.171 47.5806 135.065 47.4486C134.877 47.2168 134.912 46.8756 135.144 46.6871C135.361 46.5118 137.303 44.983 138.929 45.3977C139.22 45.4712 139.395 45.7672 139.32 46.0575C139.246 46.3478 138.95 46.5212 138.66 46.4477C137.725 46.2083 136.298 47.147 135.827 47.5278C135.725 47.6089 135.604 47.6485 135.486 47.6485Z" fill="#122052"/>
<path d="M164.32 44.0038C164.021 44.0038 163.779 43.7607 163.779 43.4628C163.779 43.1631 164.023 42.9218 164.32 42.9218C166.313 42.9218 167.244 41.8699 167.553 41.4156C165.393 36.9612 163.246 32.4748 163.225 32.4295C163.097 32.1599 163.21 31.8357 163.48 31.7075C163.749 31.5775 164.073 31.6924 164.202 31.962C164.224 32.0091 166.452 36.669 168.654 41.2045C168.726 41.3515 168.728 41.5231 168.658 41.6701C168.613 41.7625 167.529 44.0038 164.32 44.0038Z" fill="#122052"/>
<path d="M130.258 32.3543L136.922 26.3673L137.783 25.5944L139.668 23.8998C153.014 16.6479 170.165 16.8157 170.165 16.8157C170.165 16.8157 166.221 3.59009 150.109 3.78048C144.273 3.84834 139.613 5.54678 136.154 8.1312C135.557 8.57608 134.997 9.04734 134.473 9.545C131.355 12.4838 129.504 16.2219 128.942 19.96C127.739 27.9696 130.258 32.3543 130.258 32.3543Z" fill="#E45C3F"/>
<path d="M136.921 26.3675L137.783 25.5946C135 22.7048 133.95 18.7518 134.661 13.8054C134.976 11.6018 135.6 9.6017 136.154 8.13135C135.557 8.57622 134.997 9.04749 134.473 9.54515C134.105 10.7516 133.766 12.139 133.553 13.6244C132.799 18.8668 133.96 23.2175 136.921 26.3675Z" fill="#BD493F"/>
<path d="M157.535 6.66198C157.535 6.66198 151.531 4.87304 143.755 8.98813L145.261 13.3653C145.261 13.3653 152.724 10.4057 158.138 10.2436L157.535 6.66198Z" fill="#BD493F"/>
<path d="M176.718 21.1872C176.718 21.1872 195.093 9.7637 185.445 2.36859C175.798 -5.02651 153.395 5.67687 140.196 23.6189C140.194 23.6208 165.532 11.6978 176.718 21.1872Z" fill="#BD493F"/>
<path d="M157.718 167.331L156.589 168.094L155.543 168.788L153.468 170.119C152.084 170.993 150.7 171.851 149.305 172.688C146.519 174.364 143.692 175.974 140.808 177.523C135.032 180.624 129.041 183.505 122.526 185.919C119.267 187.122 115.866 188.208 112.204 189.064C108.535 189.906 104.611 190.545 100.149 190.56C97.9204 190.56 95.5434 190.394 93.0193 189.895C90.5009 189.401 87.8165 188.57 85.1661 187.22C83.8409 186.539 82.5402 185.738 81.2961 184.818C80.6816 184.364 80.0783 183.87 79.4958 183.361C79.2036 183.107 78.9228 182.839 78.6457 182.575L78.5119 182.449C78.3498 182.287 78.1951 182.127 78.0425 181.955C77.739 181.627 77.428 181.259 77.1772 180.926C76.6928 180.296 76.214 179.561 75.9048 178.99C75.739 178.688 75.5636 178.355 75.4316 178.07C75.3053 177.798 75.1809 177.523 75.0716 177.246L74.9057 176.829L74.7775 176.466C74.6889 176.226 74.6116 175.981 74.5381 175.736C74.3967 175.267 74.3044 174.882 74.2008 174.445C74.1235 174.064 74.0537 173.706 73.9971 173.336C73.786 171.96 73.7577 170.933 73.752 170.024C73.752 169.12 73.7992 168.343 73.8633 167.653C73.9236 166.944 74.0066 166.32 74.0895 165.717C74.4458 163.361 74.902 161.478 75.3695 159.67C75.8426 157.875 76.3534 156.196 76.8737 154.563C77.9218 151.311 79.0321 148.235 80.182 145.213C81.8107 140.944 83.5072 136.789 85.249 132.687C85.8051 131.371 86.3707 130.061 86.9381 128.755C87.1002 128.38 87.2604 128.006 87.4244 127.633C89.9334 121.893 92.5141 116.228 95.14 110.598C96.4501 107.78 97.7772 104.975 99.1156 102.166L101.134 97.966L103.214 93.7208C106.893 86.1956 115.981 83.0853 123.507 86.7649C131.028 90.4483 134.144 99.5362 130.462 107.056C130.379 107.233 130.291 107.399 130.198 107.57L130.089 107.765L127.976 111.665L125.859 115.635C124.453 118.285 123.058 120.943 121.684 123.61C119.282 128.266 116.937 132.94 114.658 137.618C114.328 138.299 113.998 138.983 113.666 139.664C112.812 141.441 111.964 143.221 111.139 145C109.465 148.58 107.853 152.154 106.352 155.698C105.233 158.345 104.171 160.98 103.251 163.508C103.236 163.553 103.223 163.591 103.208 163.636C104.264 163.544 105.41 163.381 106.586 163.151C108.89 162.71 111.355 162.036 113.849 161.221C118.856 159.577 124.006 157.362 129.077 154.863C131.616 153.609 134.138 152.269 136.632 150.878C137.874 150.182 139.115 149.473 140.333 148.75L142.148 147.658L143.816 146.627L144.172 146.403C150.02 142.772 157.709 144.572 161.336 150.422C164.887 156.13 163.24 163.6 157.718 167.331Z" fill="#EAAD91"/>
<path d="M114.662 137.618C114.332 138.299 114.002 138.983 113.67 139.664C112.816 141.441 111.968 143.221 111.142 145L85.2511 132.689C85.8072 131.373 86.3727 130.063 86.9401 128.757L114.662 137.618Z" fill="#E2806D"/>
<path d="M175.286 154.633C170.888 161.091 160.658 162.514 160.658 162.514C152.111 162.297 148.218 156.303 146.538 152.12C145.651 149.907 145.264 147.451 145.845 145.138C147.549 138.359 142.557 127.938 146.252 125.725C149.089 124.027 153.223 136.225 153.223 136.225C153.223 136.225 163.353 126.483 165.621 126.23C167.891 125.978 169.738 129.192 169.067 131.703C169.067 131.703 174.321 133.12 172.954 138.583C172.954 138.583 177.048 140.561 176.377 145.328C176.377 145.328 178.394 145.975 178.394 149.422C178.396 150.851 175.286 154.633 175.286 154.633Z" fill="#EAAD91"/>
<path d="M92.2105 169.035C91.9805 169.035 91.7581 168.92 91.6262 168.712C91.4245 168.39 91.5225 167.966 91.8449 167.764C95.7922 165.297 102.139 163.429 102.409 163.349C102.773 163.242 103.155 163.451 103.261 163.817C103.368 164.183 103.159 164.563 102.793 164.669C102.729 164.688 96.3577 166.563 92.5725 168.929C92.4613 169.003 92.3349 169.035 92.2105 169.035Z" fill="#E2806D"/>
<path d="M101.898 164.698C101.77 164.698 101.641 164.662 101.526 164.589C98.8742 162.881 94.1521 163.282 94.1049 163.286C93.726 163.32 93.3924 163.041 93.3584 162.662C93.3245 162.283 93.6035 161.95 93.9805 161.916C94.1936 161.897 99.2172 161.465 102.269 163.431C102.59 163.637 102.682 164.063 102.475 164.381C102.345 164.587 102.122 164.698 101.898 164.698Z" fill="#E2806D"/>
<path d="M139.083 149.912C139.083 149.912 143.669 163.313 152.282 170.712C154.199 170.661 156.345 169.213 157.606 167.686C157.606 167.686 148.676 159.944 144.041 146.357C141.86 146.86 140.207 148.053 139.083 149.912Z" fill="#33062B"/>
<path d="M149.099 163.437C152.711 161.134 153.874 156.5 151.698 153.087C149.521 149.674 144.829 148.775 141.217 151.079C137.605 153.382 136.442 158.016 138.618 161.429C140.795 164.842 145.487 165.741 149.099 163.437Z" fill="#33062B"/>
<path d="M147.99 161.691C150.59 160.032 151.428 156.697 149.862 154.241C148.295 151.785 144.918 151.139 142.318 152.797C139.718 154.455 138.88 157.79 140.447 160.246C142.013 162.702 145.39 163.349 147.99 161.691Z" fill="white"/>
<path d="M134.474 97.6454C134.553 98.1902 134.602 98.7501 134.632 99.3288C135.365 113.812 117.763 142.798 117.763 142.798L115.523 141.909L114.633 141.556L99.7641 135.635L98.8517 135.271L82.5496 128.781C83.4978 125.708 84.7119 122.609 87.9221 115.829C88.1841 115.275 88.4594 114.701 88.7516 114.096C90.5631 110.307 92.9383 105.48 96.1014 99.1233C98.3522 94.5992 100.443 91.5812 102.661 89.3248C102.895 89.0872 103.133 88.8535 103.372 88.6348C104.771 87.3247 106.234 86.2785 107.828 85.3096C113.582 81.8222 120.722 81.7732 126.289 85.1474C129.738 88.8591 132.436 93.044 134.474 97.6454Z" fill="#FDB74D"/>
<path d="M117.761 143.486C117.651 143.486 117.542 143.46 117.439 143.405C117.103 143.228 116.977 142.811 117.154 142.476L132.093 114.381C132.272 114.045 132.689 113.919 133.022 114.096C133.358 114.273 133.484 114.692 133.307 115.026L118.368 143.121C118.243 143.352 118.006 143.486 117.761 143.486Z" fill="#273A8E"/>
<path d="M129.101 122.157C128.781 122.157 128.494 121.933 128.428 121.607C128.353 121.235 128.593 120.871 128.966 120.796L133.573 119.855C133.942 119.78 134.308 120.019 134.383 120.393C134.459 120.764 134.219 121.128 133.848 121.203L129.241 122.144C129.194 122.153 129.147 122.157 129.101 122.157Z" fill="#273A8E"/>
<path d="M38.7542 188.418C38.7542 185.087 41.4631 182.378 44.794 182.378C48.1249 182.378 50.8337 185.087 50.8337 188.418C50.8337 191.747 48.1249 194.458 44.794 194.458C41.4631 194.456 38.7542 191.747 38.7542 188.418ZM40.4357 188.418C40.4357 190.821 42.3905 192.774 44.7921 192.774C47.1936 192.774 49.1504 190.82 49.1504 188.418C49.1504 186.015 47.1955 184.06 44.7921 184.06C42.3886 184.06 40.4357 186.015 40.4357 188.418Z" fill="#23B576"/>
<path d="M24.7031 194.681C25.1329 194.681 25.4798 194.334 25.4798 193.904V189.195C25.4798 188.766 25.131 188.419 24.7031 188.419C24.2733 188.419 23.9265 188.768 23.9265 189.195V193.904C23.9265 194.334 24.2733 194.681 24.7031 194.681Z" fill="#E45C3F"/>
<path d="M26.2449 196.225H30.9539C31.3837 196.225 31.7305 195.878 31.7305 195.448C31.7305 195.018 31.3818 194.671 30.9539 194.671H26.2449C25.8151 194.671 25.4683 195.018 25.4683 195.448C25.4683 195.876 25.817 196.225 26.2449 196.225Z" fill="#E45C3F"/>
<path d="M18.4506 196.225H23.1596C23.5893 196.225 23.9362 195.878 23.9362 195.448C23.9362 195.018 23.5875 194.671 23.1596 194.671H18.4506C18.0208 194.671 17.674 195.018 17.674 195.448C17.674 195.876 18.0227 196.225 18.4506 196.225Z" fill="#E45C3F"/>
<path d="M24.7031 202.151C25.1329 202.151 25.4798 201.802 25.4798 201.374V196.666C25.4798 196.236 25.131 195.889 24.7031 195.889C24.2733 195.889 23.9265 196.238 23.9265 196.666V201.374C23.9265 201.804 24.2733 202.151 24.7031 202.151Z" fill="#E45C3F"/>
<path d="M44.7921 209.03C45.2219 209.03 45.5688 208.681 45.5688 208.253V203.544C45.5688 203.114 45.22 202.767 44.7921 202.767C44.3623 202.767 44.0154 203.116 44.0154 203.544V208.253C44.0154 208.683 44.3623 209.03 44.7921 209.03Z" fill="#FDB74D"/>
<path d="M46.3355 210.573H51.0444C51.4741 210.573 51.821 210.224 51.821 209.796C51.821 209.368 51.4723 209.019 51.0444 209.019H46.3355C45.9057 209.019 45.5589 209.368 45.5589 209.796C45.5589 210.224 45.9057 210.573 46.3355 210.573Z" fill="#FDB74D"/>
<path d="M38.5412 210.573H43.2501C43.6799 210.573 44.0268 210.224 44.0268 209.796C44.0268 209.368 43.678 209.019 43.2501 209.019H38.5412C38.1114 209.019 37.7646 209.368 37.7646 209.796C37.7646 210.224 38.1114 210.573 38.5412 210.573Z" fill="#FDB74D"/>
<path d="M44.7921 216.5C45.2219 216.5 45.5688 216.151 45.5688 215.723V211.014C45.5688 210.584 45.22 210.238 44.7921 210.238C44.3623 210.238 44.0154 210.586 44.0154 211.014V215.723C44.0154 216.151 44.3623 216.5 44.7921 216.5Z" fill="#FDB74D"/>
<path d="M211.545 28.0773C208.216 28.0773 205.506 25.3684 205.506 22.0375C205.506 18.7066 208.214 15.9978 211.545 15.9978C214.876 15.9978 217.585 18.7066 217.585 22.0375C217.585 25.3684 214.874 28.0773 211.545 28.0773ZM211.545 17.6793C209.142 17.6793 207.189 19.6341 207.189 22.0375C207.189 24.441 209.144 26.3939 211.545 26.3939C213.949 26.3939 215.902 24.4391 215.902 22.0375C215.902 19.636 213.949 17.6793 211.545 17.6793Z" fill="#FDB74D"/>
<path d="M231.635 28.3022C231.206 28.3022 230.859 27.9535 230.859 27.5256V22.8167C230.859 22.3869 231.207 22.04 231.635 22.04C232.065 22.04 232.412 22.3888 232.412 22.8167V27.5256C232.414 27.9535 232.065 28.3022 231.635 28.3022Z" fill="#E45C3F"/>
<path d="M230.093 29.8442H225.385C224.955 29.8442 224.608 29.4955 224.608 29.0675C224.608 28.6378 224.957 28.2909 225.385 28.2909H230.093C230.523 28.2909 230.87 28.6396 230.87 29.0675C230.87 29.4973 230.523 29.8442 230.093 29.8442Z" fill="#E45C3F"/>
<path d="M237.888 29.8442H233.179C232.749 29.8442 232.402 29.4955 232.402 29.0675C232.402 28.6378 232.751 28.2909 233.179 28.2909H237.888C238.317 28.2909 238.664 28.6396 238.664 29.0675C238.664 29.4973 238.317 29.8442 237.888 29.8442Z" fill="#E45C3F"/>
<path d="M231.635 35.7724C231.206 35.7724 230.859 35.4237 230.859 34.9958V30.2869C230.859 29.8571 231.207 29.5103 231.635 29.5103C232.065 29.5103 232.412 29.859 232.412 30.2869V34.9958C232.414 35.4237 232.065 35.7724 231.635 35.7724Z" fill="#E45C3F"/>
<path d="M211.546 42.6502C211.116 42.6502 210.769 42.3015 210.769 41.8736V37.1647C210.769 36.7349 211.118 36.3881 211.546 36.3881C211.974 36.3881 212.322 36.7368 212.322 37.1647V41.8736C212.322 42.3015 211.976 42.6502 211.546 42.6502Z" fill="#23B576"/>
<path d="M210.004 44.1922H205.295C204.865 44.1922 204.518 43.8435 204.518 43.4156C204.518 42.9877 204.867 42.6389 205.295 42.6389H210.004C210.434 42.6389 210.78 42.9877 210.78 43.4156C210.78 43.8435 210.432 44.1922 210.004 44.1922Z" fill="#23B576"/>
<path d="M217.798 44.1922H213.089C212.66 44.1922 212.313 43.8435 212.313 43.4156C212.313 42.9877 212.662 42.6389 213.089 42.6389H217.798C218.228 42.6389 218.575 42.9877 218.575 43.4156C218.575 43.8435 218.226 44.1922 217.798 44.1922Z" fill="#23B576"/>
<path d="M211.546 50.1204C211.116 50.1204 210.769 49.7717 210.769 49.3438V44.6349C210.769 44.2051 211.118 43.8583 211.546 43.8583C211.974 43.8583 212.322 44.207 212.322 44.6349V49.3438C212.322 49.7717 211.976 50.1204 211.546 50.1204Z" fill="#23B576"/>
</svg>
