<svg width="299" height="238" viewBox="0 0 299 238" fill="none" xmlns="http://www.w3.org/2000/svg">
<path d="M129.329 213.033C187.847 224.738 239.126 211.465 267.361 187.937C278.993 178.245 290.758 163.363 295.071 146.109C310.756 83.3671 264.531 31.4199 228.669 50.9505C170.111 82.8447 161.393 60.18 113.642 11.7379C77.5658 -24.8611 -36.9379 26.3782 22.6681 134.084C46.9018 177.872 87.5013 204.667 129.329 213.033Z" fill="#E4F3ED"/>
<path d="M146.751 237.869C225.898 237.869 290.06 235.338 290.06 232.216C290.06 229.095 225.898 226.564 146.751 226.564C67.6036 226.564 3.44202 229.095 3.44202 232.216C3.44202 235.338 67.6036 237.869 146.751 237.869Z" fill="#D9DAEB"/>
<path d="M55.6722 219.236C55.6722 219.236 45.6358 210.882 26.3681 206.534C12.7599 203.464 0 186.582 0 186.582C0 186.582 22.2433 180.512 36.0569 190.811C49.8704 201.112 55.6722 219.236 55.6722 219.236Z" fill="#ACB0CE"/>
<path d="M55.8339 219.494C55.6898 219.54 55.5259 219.486 55.4413 219.351C48.629 208.697 39.1744 202.414 32.4415 199.021C25.1465 195.345 19.4024 194.176 19.3448 194.163C19.1593 194.127 19.0386 193.945 19.0764 193.76C19.1142 193.574 19.2943 193.453 19.4799 193.489C19.5375 193.5 25.3735 194.687 32.7513 198.407C39.5599 201.84 49.1244 208.195 56.0195 218.98C56.1221 219.141 56.0753 219.351 55.915 219.454C55.8898 219.472 55.8628 219.485 55.8339 219.494Z" fill="#23B576"/>
<path d="M53.9502 216.551C53.9502 216.551 50.2036 204.041 36.5449 189.77C26.8994 179.692 25.5935 158.571 25.5935 158.571C25.5935 158.571 47.4874 165.805 53.3071 182.023C59.1287 198.241 53.9502 216.551 53.9502 216.551Z" fill="#ACB0CE"/>
<path d="M53.9417 216.855C53.7958 216.813 53.6895 216.678 53.6931 216.52C53.9038 203.875 49.4944 193.415 45.7587 186.866C41.7114 179.771 37.5703 175.623 37.5289 175.581C37.3938 175.448 37.3938 175.23 37.5271 175.097C37.6604 174.962 37.8784 174.962 38.0117 175.095C38.0531 175.137 42.2607 179.351 46.3549 186.527C50.1321 193.151 54.5919 203.733 54.3794 216.532C54.3758 216.721 54.2208 216.873 54.0299 216.869C53.9993 216.867 53.9687 216.864 53.9417 216.855Z" fill="#7C83A6"/>
<path d="M227.835 116.292C227.835 116.292 237.872 107.938 257.139 103.59C270.748 100.521 283.508 83.6381 283.508 83.6381C283.508 83.6381 261.264 77.568 247.451 87.8692C233.637 98.1704 227.835 116.292 227.835 116.292Z" fill="#ACB0CE"/>
<path d="M227.672 116.551C227.816 116.597 227.98 116.543 228.065 116.408C234.877 105.754 244.332 99.4713 251.065 96.0778C258.36 92.3997 264.104 91.2325 264.161 91.2199C264.347 91.1839 264.468 91.002 264.432 90.8164C264.394 90.6309 264.214 90.5103 264.028 90.5463C263.97 90.5571 258.134 91.7441 250.758 95.4636C243.95 98.8967 234.385 105.251 227.49 116.037C227.388 116.197 227.434 116.408 227.595 116.511C227.618 116.529 227.645 116.542 227.672 116.551Z" fill="#7C83A6"/>
<path d="M229.555 113.608C229.555 113.608 233.301 101.098 246.96 86.8273C256.605 76.7494 257.911 55.6283 257.911 55.6283C257.911 55.6283 236.018 62.862 230.198 79.0802C224.376 95.2966 229.555 113.608 229.555 113.608Z" fill="#ACB0CE"/>
<path d="M229.565 113.913C229.711 113.871 229.817 113.736 229.813 113.578C229.602 100.933 234.012 90.4734 237.748 83.9242C241.795 76.8292 245.936 72.681 245.977 72.6395C246.112 72.5063 246.112 72.2883 245.979 72.155C245.846 72.0199 245.628 72.0199 245.495 72.1532C245.453 72.1946 241.246 76.4095 237.151 83.5856C233.372 90.2087 228.914 100.791 229.127 113.59C229.131 113.779 229.285 113.931 229.476 113.927C229.507 113.925 229.536 113.92 229.565 113.913Z" fill="#7C83A6"/>
<path d="M230.504 84.3485H54.4991V215.317H230.504V84.3485Z" fill="#FDB74D"/>
<path d="M104.362 164.192L62.9702 165.317V162.27H104.362V164.192Z" fill="#EC6F2E"/>
<path d="M221.664 164.218L180.272 165.344V162.296H221.664V164.218Z" fill="#EC6F2E"/>
<path d="M240.64 84.3493V104.727H44.3589V84.3493H44.3625C68.0197 80.0516 75.5705 39.9095 75.5705 39.9095H209.43C209.428 39.9095 216.975 80.0552 240.64 84.3493Z" fill="white"/>
<path d="M240.639 84.3484H44.3602V104.726H240.639V84.3484Z" fill="#D9DAEB"/>
<path d="M97.3879 39.9095C97.3879 39.9095 92.9442 80.0552 69.2834 84.3493V104.727H44.3599V84.3493C68.0207 80.0552 75.5678 39.9095 75.5678 39.9095H97.3879Z" fill="#E45C3F"/>
<path d="M240.646 84.3487V104.726H215.719V84.3487C192.058 80.0546 186.35 39.9089 186.35 39.9089H209.434C209.436 39.9089 216.981 80.0546 240.646 84.3487Z" fill="#E45C3F"/>
<path d="M124.993 84.4892V104.726H101.638L101.049 84.3487C115.908 72.9524 117.075 39.9089 117.075 39.9089H132.468C133.187 63.7967 124.993 84.4892 124.993 84.4892Z" fill="#E45C3F"/>
<path d="M181.155 84.3487L180.566 104.726H157.211V84.4892C157.211 84.4892 149.017 63.7967 149.738 39.9089H165.131C165.131 39.9089 166.3 72.9524 181.155 84.3487Z" fill="#E45C3F"/>
<path d="M69.2838 84.3484H44.3602V104.726H69.2838V84.3484Z" fill="#BD493F"/>
<path d="M240.645 84.3484V104.726H215.719V84.3484H240.639H240.645Z" fill="#BD493F"/>
<path d="M125.047 84.3484C125.011 84.4421 124.993 84.4889 124.993 84.4889V104.726H101.637L101.048 84.3484H125.047Z" fill="#BD493F"/>
<path d="M181.156 84.3484L180.567 104.726H157.212V84.4889C157.212 84.4889 157.194 84.4421 157.156 84.3484H181.156Z" fill="#BD493F"/>
<path d="M169.388 118.033H115.614V215.316H169.388V118.033Z" fill="#F48A13"/>
<path d="M161.567 176.408C163.616 176.408 165.278 174.747 165.278 172.698C165.278 170.648 163.616 168.987 161.567 168.987C159.518 168.987 157.857 170.648 157.857 172.698C157.857 174.747 159.518 176.408 161.567 176.408Z" fill="#E45C3F"/>
<path d="M164.608 122.752H120.393V163.822H164.608V122.752Z" fill="#D9DAEB"/>
<path d="M146.309 122.752L120.393 148.668V131.877L129.518 122.752H146.309Z" fill="#EBEBFB"/>
<path d="M164.609 150.317V163.821H151.103L164.609 150.317Z" fill="#EBEBFB"/>
<path d="M164.649 122.308V130.242L131.5 163.377H123.518L164.588 122.308H164.649Z" fill="#EBEBFB"/>
<path d="M54.4991 113.195L230.504 108.355V104.726H54.4991V113.195Z" fill="#F48A13"/>
<path d="M63.3396 162.296V141.6C63.3396 130.19 72.6231 120.904 84.0356 120.904C95.4482 120.904 104.732 130.188 104.732 141.6V162.296H63.3396Z" fill="#F48A13"/>
<path d="M101.38 141.6V158.571H66.6942V141.6C66.6942 132.227 74.2918 124.629 83.6617 124.629H84.4092C85.0685 124.629 85.7187 124.665 86.3564 124.743C89.5067 125.101 92.3977 126.32 94.7789 128.165C96.2054 129.267 97.4537 130.591 98.466 132.088C100.307 134.801 101.38 138.075 101.38 141.6Z" fill="#D9DAEB"/>
<path d="M86.3564 124.744L66.6942 144.406V141.602C66.6942 132.228 74.2918 124.63 83.6617 124.63H84.4092C85.0685 124.629 85.7187 124.666 86.3564 124.744Z" fill="#EBEBFB"/>
<path d="M101.381 146.938V158.572H89.7501L101.381 146.938Z" fill="#EBEBFB"/>
<path d="M98.4655 132.089L71.9713 158.572H66.6956V156.246L94.7802 128.167C96.205 129.268 97.4532 130.593 98.4655 132.089Z" fill="#EBEBFB"/>
<path d="M180.272 162.296V141.6C180.272 130.189 189.555 120.904 200.968 120.904C212.381 120.904 221.664 130.188 221.664 141.6V162.296H180.272Z" fill="#F48A13"/>
<path d="M218.31 141.6V158.571H183.624V141.6C183.624 132.226 191.222 124.629 200.59 124.629H201.337C201.997 124.629 202.647 124.665 203.285 124.742C206.435 125.101 209.324 126.32 211.707 128.165C213.134 129.267 214.382 130.591 215.394 132.088C217.239 134.8 218.31 138.075 218.31 141.6Z" fill="#D9DAEB"/>
<path d="M203.289 124.744L183.627 144.406V141.601C183.627 132.228 191.224 124.63 200.593 124.63H201.34C201.999 124.628 202.65 124.666 203.289 124.744Z" fill="#EBEBFB"/>
<path d="M218.31 146.938V158.572H206.681L218.31 146.938Z" fill="#EBEBFB"/>
<path d="M215.397 132.087L188.903 158.569H183.627V156.243L211.711 128.164C213.138 129.266 214.386 130.592 215.397 132.087Z" fill="#EBEBFB"/>
<path d="M234.848 223.167H50.1577C48.0935 223.167 46.422 221.494 46.422 219.431V219.032C46.422 216.967 48.0953 215.296 50.1577 215.296H234.846C236.91 215.296 238.582 216.969 238.582 219.032V219.431C238.584 221.494 236.91 223.167 234.848 223.167Z" fill="#E45C3F"/>
<path d="M246.745 232.055H38.2605C35.9315 232.055 34.042 230.165 34.042 227.836V227.386C34.042 225.057 35.9297 223.167 38.2605 223.167H246.747C249.076 223.167 250.965 225.055 250.965 227.386V227.836C250.963 230.165 249.076 232.055 246.745 232.055Z" fill="#F89707"/>
<path d="M286.07 190.575C286.07 187.393 288.659 184.804 291.841 184.804C295.024 184.804 297.613 187.393 297.613 190.575C297.613 193.756 295.024 196.345 291.841 196.345C288.659 196.347 286.07 193.758 286.07 190.575ZM287.677 190.575C287.677 192.872 289.545 194.738 291.84 194.738C294.136 194.738 296.004 192.87 296.004 190.575C296.004 188.279 294.136 186.411 291.84 186.411C289.545 186.413 287.677 188.281 287.677 190.575Z" fill="#DE7061"/>
<path d="M280.959 207.581C281.37 207.581 281.701 207.247 281.701 206.839V202.339C281.701 201.928 281.368 201.597 280.959 201.597C280.55 201.597 280.217 201.928 280.217 202.339V206.839C280.217 207.247 280.549 207.581 280.959 207.581Z" fill="#FDB74D"/>
<path d="M282.431 209.054H286.931C287.341 209.054 287.673 208.721 287.673 208.312C287.673 207.903 287.34 207.57 286.931 207.57H282.431C282.021 207.57 281.689 207.903 281.689 208.312C281.689 208.721 282.021 209.054 282.431 209.054Z" fill="#FDB74D"/>
<path d="M274.984 209.054H279.483C279.894 209.054 280.225 208.721 280.225 208.312C280.225 207.903 279.892 207.57 279.483 207.57H274.984C274.573 207.57 274.242 207.903 274.242 208.312C274.242 208.721 274.575 209.054 274.984 209.054Z" fill="#FDB74D"/>
<path d="M280.959 214.717C281.37 214.717 281.701 214.384 281.701 213.975V209.476C281.701 209.065 281.368 208.733 280.959 208.733C280.55 208.733 280.217 209.067 280.217 209.476V213.975C280.217 214.386 280.549 214.717 280.959 214.717Z" fill="#FDB74D"/>
<path d="M46.5065 31.7348C46.5065 28.5538 49.0948 25.9655 52.2776 25.9655C55.4585 25.9655 58.0487 28.5538 58.0487 31.7348C58.0487 34.9175 55.4603 37.5059 52.2776 37.5059C49.0948 37.5059 46.5065 34.9175 46.5065 31.7348ZM48.1132 31.7348C48.1132 34.0313 49.981 35.8992 52.2758 35.8992C54.5723 35.8992 56.4384 34.0313 56.4384 31.7348C56.4384 29.4382 54.5705 27.5721 52.2758 27.5721C49.981 27.5721 48.1132 29.44 48.1132 31.7348Z" fill="#FDB74D"/>
<path d="M34.6202 42.7273C35.0308 42.7273 35.3623 42.3941 35.3623 41.9852V37.4858C35.3623 37.0751 35.029 36.7437 34.6202 36.7437C34.2095 36.7437 33.8781 37.0769 33.8781 37.4858V41.9852C33.8781 42.3941 34.2095 42.7273 34.6202 42.7273Z" fill="#DE7061"/>
<path d="M36.0948 44.2006H40.5942C41.0049 44.2006 41.3363 43.8674 41.3363 43.4585C41.3363 43.0479 41.0031 42.7164 40.5942 42.7164H36.0948C35.6841 42.7164 35.3527 43.0497 35.3527 43.4585C35.3509 43.8692 35.6841 44.2006 36.0948 44.2006Z" fill="#DE7061"/>
<path d="M28.6468 44.2006H33.1462C33.5569 44.2006 33.8883 43.8674 33.8883 43.4585C33.8883 43.0479 33.5551 42.7164 33.1462 42.7164H28.6468C28.2361 42.7164 27.9047 43.0497 27.9047 43.4585C27.9029 43.8692 28.2361 44.2006 28.6468 44.2006Z" fill="#DE7061"/>
<path d="M34.6202 49.8655C35.0308 49.8655 35.3623 49.5323 35.3623 49.1234V44.6239C35.3623 44.2133 35.029 43.8818 34.6202 43.8818C34.2095 43.8818 33.8781 44.2151 33.8781 44.6239V49.1234C33.8781 49.5323 34.2095 49.8655 34.6202 49.8655Z" fill="#DE7061"/>
<path d="M17.6088 96.001C27.0464 96.001 34.697 88.3503 34.697 78.9128C34.697 69.4752 27.0464 61.8246 17.6088 61.8246C8.17127 61.8246 0.52063 69.4752 0.52063 78.9128C0.52063 88.3503 8.17127 96.001 17.6088 96.001Z" fill="#23B576"/>
<path d="M25.3795 72.4002C25.3309 72.1948 25.2822 71.9877 25.23 71.7823C25.0499 71.0565 24.7058 70.4188 24.2159 69.8532C23.8665 69.448 23.4612 69.1039 23.0019 68.841C22.3696 68.4771 21.6546 68.632 21.1898 69.1958C20.3577 70.1991 19.5291 71.2078 18.7078 72.22C18.2034 72.8433 18.2863 73.6934 18.9113 74.2464C19.3598 74.6427 19.8317 75.0119 20.2946 75.392C20.3541 75.4406 20.4243 75.4767 20.4748 75.5109C19.3706 78.4793 17.4991 80.7723 14.8117 82.424C14.4857 82.1538 14.1453 81.8692 13.803 81.5864C13.6283 81.4423 13.4554 81.2946 13.2735 81.1577C12.7331 80.7452 12.1081 80.702 11.5461 81.0695C11.3696 81.1847 11.2219 81.3577 11.085 81.5234C10.3321 82.4312 9.59177 83.348 8.83886 84.254C8.59929 84.5422 8.44799 84.8592 8.39575 85.2267C8.40836 85.3618 8.42278 85.4968 8.43538 85.6319C8.56687 85.8589 8.65693 86.1273 8.83706 86.3074C9.27836 86.7451 9.76288 87.1378 10.3393 87.3989C11.0147 87.7033 11.7208 87.8907 12.4611 87.8258C12.9492 87.7826 13.4374 87.6799 13.9111 87.5485C15.1269 87.2098 16.2347 86.6298 17.2758 85.9256C18.3079 85.2285 19.2481 84.4197 20.1127 83.5227C21.2781 82.3141 22.312 80.9956 23.2504 79.6032C23.9889 78.5045 24.6284 77.3553 25.0427 76.0927C25.2516 75.4569 25.3903 74.8066 25.4353 74.1383C25.4533 73.87 25.4587 73.5998 25.4713 73.3296C25.4407 73.0162 25.4101 72.7082 25.3795 72.4002Z" fill="white"/>
<path d="M31.2385 85.5859L35.3038 96.6058C35.5758 97.3443 34.8553 98.063 34.1168 97.7856L23.1636 93.6716L31.2385 85.5859Z" fill="#23B576"/>
<path d="M257.496 109.253C257.65 109.104 257.737 109.005 257.737 109.005H254.127C254.127 109.005 254.127 109.005 254.127 109.01C252.818 108.965 251.492 108.988 250.157 109.079C229.846 110.419 213.622 127.4 213.142 147.751C212.952 155.431 214.948 162.649 218.58 168.798C220.332 171.783 222.154 174.727 223.838 177.751L249.459 223.974C251.368 227.418 254.995 229.555 258.933 229.555V218.057L271.382 195.624C276.381 186.612 281.806 177.849 287.062 168.988C290.594 163.047 292.623 156.119 292.623 148.723C292.621 128.353 277.276 111.539 257.496 109.253ZM252.881 160.745C243.612 160.745 236.105 153.241 236.105 143.969C236.105 134.698 243.612 127.196 252.881 127.196C262.137 127.196 269.654 134.7 269.654 143.969C269.654 153.241 262.137 160.745 252.881 160.745Z" fill="#23B576"/>
<path d="M242.483 143.969C242.483 134.699 249.988 127.195 259.258 127.195C268.516 127.195 276.033 134.699 276.033 143.969C276.033 153.24 268.516 160.744 259.258 160.744C249.989 160.744 242.483 153.24 242.483 143.969ZM219.521 147.748C219.329 155.431 221.327 162.648 224.957 168.795C226.71 171.78 228.531 174.724 230.215 177.75L258.932 229.554L277.761 195.621C282.76 186.611 288.183 177.846 293.439 168.987C296.973 163.044 299 156.116 299 148.722C299 125.894 279.719 107.531 256.536 109.078C236.225 110.42 220 127.399 219.521 147.748Z" fill="#67DAA8"/>
</svg>
